<?xml version="1.0" encoding="UTF-8" standalone="no"?>
<!-- Created with Inkscape (http://www.inkscape.org/) -->

<svg
   width="64.945168mm"
   height="64.960892mm"
   viewBox="0 0 64.945168 64.960892"
   version="1.1"
   id="svg1"
   xml:space="preserve"
   xmlns:inkscape="http://www.inkscape.org/namespaces/inkscape"
   xmlns:sodipodi="http://sodipodi.sourceforge.net/DTD/sodipodi-0.dtd"
   xmlns="http://www.w3.org/2000/svg"
   xmlns:svg="http://www.w3.org/2000/svg"><sodipodi:namedview
     id="namedview1"
     pagecolor="#ffffff"
     bordercolor="#000000"
     borderopacity="0.25"
     inkscape:showpageshadow="2"
     inkscape:pageopacity="0.0"
     inkscape:pagecheckerboard="0"
     inkscape:deskcolor="#d1d1d1"
     inkscape:document-units="mm"
     showguides="true"><sodipodi:guide
       position="5.8783871,280.135"
       orientation="-0.70710678,0.70710678"
       id="guide3"
       inkscape:locked="false"
       inkscape:label=""
       inkscape:color="rgb(0,134,229)" /><sodipodi:guide
       position="51.398557,238.14147"
       orientation="-0.70710678,0.70710678"
       id="guide6"
       inkscape:locked="false"
       inkscape:label=""
       inkscape:color="rgb(0,134,229)" /><sodipodi:guide
       position="41.698504,255.93514"
       orientation="1,0"
       id="guide7"
       inkscape:locked="false" /><sodipodi:guide
       position="41.654048,271.07245"
       orientation="0,-1"
       id="guide8"
       inkscape:locked="false" /><sodipodi:guide
       position="43.054416,255.29052"
       orientation="0,-1"
       id="guide9"
       inkscape:locked="false" /></sodipodi:namedview><defs
     id="defs1" /><g
     inkscape:label="Layer 1"
     inkscape:groupmode="layer"
     id="layer1"
     style="opacity:1"
     transform="translate(-17.383679,-17.83949)"><path
       id="path1"
       style="opacity:1;fill:#f9f9f9;stroke:#ffffff;stroke-width:0"
       d="m 69.792122,40.631628 -2.384867,4.131014 A 16.975019,16.975019 0 0 0 59.066679,42.563293 16.975019,16.975019 0 0 0 42.092004,59.538485 16.975019,16.975019 0 0 0 59.066679,76.513159 16.975019,16.975019 0 0 0 76.04187,59.538485 16.975019,16.975019 0 0 0 76.03467,59.255298 h -4.338753 a 12.636955,12.636955 0 0 1 0.0078,0.283187 A 12.636955,12.636955 0 0 1 59.066679,72.175439 12.636955,12.636955 0 0 1 46.429724,59.538485 12.636955,12.636955 0 0 1 59.066679,46.90153 a 12.636955,12.636955 0 0 1 6.173266,1.614372 l -2.703194,4.682401 h 14.510742 z" /><path
       style="fill:#c9b269;fill-opacity:1;stroke:#ffffff;stroke-width:0"
       d="M 44.355101,44.763758 V 22.036092 l -4.196603,-4.196602 -5.642621,17.053609 -16.975022,5.564034 4.322343,4.322344 0.01572,-0.01572 v 0"
       id="path3" /><path
       style="fill:#c9b269;fill-opacity:1;stroke:#ffffff;stroke-width:0"
       d="m 66.359759,41.148709 3.363568,-5.752648 V 23.136325 L 60.135584,17.886642 50.013441,41.93459 c 0,0 7.544453,-4.055144 16.346318,-0.785881 z"
       id="path4" /><path
       style="fill:#c9b269;fill-opacity:1;stroke:#ffffff;stroke-width:0"
       d="m 41.683106,50.327795 -24.299427,10.027835 5.281117,9.807789 h 20.024237 c 0,0 -6.664266,-8.927602 -1.005927,-19.835624 z"
       id="path5" /><path
       style="fill:#c9b269;fill-opacity:1;stroke:#ffffff;stroke-width:0"
       d="m 68.874576,76.60764 3.787944,3.787944 9.666332,2.404795 -2.200465,-9.776354 -3.884216,-3.785981 c 0,0 -1.298412,2.095708 -2.96959,3.936511 -1.671178,1.840803 -4.400005,3.433085 -4.400005,3.433085 z"
       id="path6"
       sodipodi:nodetypes="ccccczc" /><path
       id="path9"
       style="display:inline;fill:#c9b269;fill-opacity:1;stroke:#ffffff;stroke-width:0"
       d="m 59.126624,49.568551 a 9.9581709,9.9581709 0 0 0 -9.958049,9.958048 9.9581709,9.9581709 0 0 0 9.958049,9.958565 9.9581709,9.9581709 0 0 0 9.958048,-9.958565 9.9581709,9.9581709 0 0 0 -0.685746,-3.623035 h -10.58385 l 3.674711,-6.048726 a 9.9581709,9.9581709 0 0 0 -2.363163,-0.286287 z" /></g></svg>
